<?xml version="1.0"?>
<svg xmlns="http://www.w3.org/2000/svg" xmlns:xlink="http://www.w3.org/1999/xlink" xmlns:svgjs="http://svgjs.com/svgjs" version="1.1" width="512" height="512" x="0" y="0" viewBox="0 0 511.943 511.943" style="enable-background:new 0 0 512 512" xml:space="preserve"><g><g xmlns="http://www.w3.org/2000/svg"><path d="m490.73 127.335 21.213-21.213-13.536-13.536c12.755-22.126 9.694-50.946-9.204-69.845h-.001c-10.932-10.932-25.468-16.953-40.927-16.953-10.323 0-20.228 2.698-28.929 7.737l-13.525-13.525-21.213 21.213 12.134 12.134-24.268 24.268-12.134-12.134-21.213 21.213 13.536 13.536c-3.612 6.265-5.954 13.064-7.028 20.026l-74.327 74.327c-8.024-4.794-15.901-8.343-23.701-10.652-20.494-6.068-40.24-3.565-58.682 7.444-16.638 9.933-27.445 24.189-36.98 36.768-9.186 12.116-17.118 22.581-28.526 27.954-8.871 4.179-18.231 7.928-27.283 11.554-26.903 10.776-54.723 21.919-74.574 45.961-17.123 20.735-24.262 45.653-20.647 72.06 4.117 30.076 21.988 61.109 53.117 92.238s62.162 49 92.237 53.117c4.467.611 8.889.915 13.256.915 21.459 0 41.577-7.335 58.805-21.56 24.042-19.852 35.186-47.672 45.962-74.577 3.625-9.051 7.374-18.411 11.553-27.281h-.001c5.374-11.407 15.838-19.339 27.954-28.524 12.578-9.536 26.835-20.344 36.768-36.982 11.01-18.44 13.515-38.184 7.445-58.682-2.309-7.8-5.858-15.677-10.651-23.701l74.328-74.328c6.962-1.074 13.761-3.416 20.025-7.028l13.536 13.536 21.213-21.213-12.134-12.134 24.269-24.268zm-175.923 180.305c-6.943 11.632-17.722 19.803-29.133 28.454-13.988 10.604-28.454 21.57-36.969 39.646-4.558 9.675-8.475 19.454-12.263 28.911-9.809 24.489-19.073 47.619-37.214 62.598-11.916 9.839-25.263 14.711-39.674 14.709-25.499-.003-54.312-15.264-84.309-45.261-46.951-46.951-57.801-90.982-30.553-123.983 14.979-18.14 38.108-27.404 62.596-37.212 9.458-3.789 19.238-7.705 28.914-12.264 18.076-8.516 29.043-22.981 39.647-36.97 8.65-11.411 16.821-22.189 28.453-29.133 4.009-2.394 10.88-6.497 21.293-6.497 13.711 0 33.56 7.12 61.075 34.634 48.411 48.411 33.683 73.081 28.137 82.368zm-6.923-103.581c-4.12-4.12-8.179-7.925-12.188-11.439l56.103-56.103c2.612 4.873 5.961 9.452 10.068 13.559 4.106 4.107 8.685 7.456 13.559 10.068l-56.103 56.103c-3.514-4.009-7.32-8.068-11.439-12.188zm114.624-75.197c-10.869 10.871-28.558 10.87-39.429 0-10.87-10.871-10.87-28.558 0-39.428l45.481-45.481c5.266-5.266 12.267-8.166 19.714-8.166s14.449 2.9 19.715 8.166c10.87 10.871 10.87 28.558 0 39.428z" fill="#2d1868" data-original="#000000" style=""/><path d="m110.803 337.9h30v96.479h-30z" transform="matrix(.707 -.707 .707 .707 -236.194 202.052)" fill="#2d1868" data-original="#000000" style=""/><path d="m226.673 238.121c-26.033 0-47.137 21.104-47.137 47.137s21.104 47.137 47.137 47.137 47.137-21.104 47.137-47.137-21.104-47.137-47.137-47.137zm0 64.301c-9.479 0-17.163-7.684-17.163-17.163s7.684-17.163 17.163-17.163 17.163 7.684 17.163 17.163-7.684 17.163-17.163 17.163z" fill="#2d1868" data-original="#000000" style=""/></g></g></svg>
